<?xml version="1.0" standalone="no"?>
<!DOCTYPE svg PUBLIC "-//W3C//DTD SVG 1.1//EN" "http://www.w3.org/Graphics/SVG/1.1/DTD/svg11.dtd">
<svg xmlns="http://www.w3.org/2000/svg">
<metadata>Copyright (C) 2024 by original authors @ fontello.com</metadata>
<defs>
<font id="fontello" horiz-adv-x="1000" >
<font-face font-family="fontello" font-weight="400" font-stretch="normal" units-per-em="1000" ascent="850" descent="-150" />
<missing-glyph horiz-adv-x="1000" />
<glyph glyph-name="info-circled" unicode="&#xe800;" d="M454 810q190 2 326-130t140-322q2-190-131-327t-323-141q-190-2-327 131t-139 323q-4 190 130 327t324 139z m52-152q-42 0-65-24t-23-50q-2-28 15-44t49-16q38 0 61 22t23 54q0 58-60 58z m-120-594q30 0 84 26t106 78l-18 24q-48-36-72-36-14 0-4 38l42 160q26 96-22 96-30 0-89-29t-115-75l16-26q52 34 74 34 12 0 0-34l-36-152q-26-104 34-104z" horiz-adv-x="920" />

<glyph glyph-name="sun" unicode="&#xe801;" d="M542 766l-51-152-53 152q-7 22 3 42t31 28q30 10 56-11t14-59z m-469-363l153-53-153-52q-21-8-42 3t-28 32q-10 30 12 56t58 14z m365-469l53 152 51-152q7-21-3-42t-31-28q-30-10-56 12t-14 58z m469 364l-153 52 153 53q21 7 42-3t28-32q10-30-12-57t-58-13z m-675 383l71-145-145 72q-21 10-28 31t3 42q16 32 50 30t49-30z m-74-588l145 71-71-145q-10-21-31-28t-43 3q-31 16-30 50t30 49z m590-74l-71 145 145-71q21-10 28-32t-3-42q-16-31-50-30t-49 30z m74 589l-145-72 71 145q10 22 31 29t43-4q31-16 30-50t-30-48z m-331-493q-97 0-166 70t-69 165 69 166 166 69 165-69 68-166-68-165-165-70z m0 365q-54 0-93-38t-39-92 39-92 93-38 92 38 38 92-38 92-92 38z" horiz-adv-x="980" />

<glyph glyph-name="globe" unicode="&#xe802;" d="M429 779q116 0 215-58t156-156 57-215-57-215-156-156-215-58-216 58-155 156-58 215 58 215 155 156 216 58z m153-291q-2-1-6-5t-7-6q1 0 2 3t3 6 2 4q3 4 12 8 8 4 29 7 19 5 29-6-1 1 5 7t8 7q2 1 8 3t9 4l1 12q-7-1-10 4t-3 12q0-2-4-5 0 4-2 5t-7-1-5-1q-5 2-8 5t-5 9-2 8q-1 3-5 6t-5 6q-1 1-2 3t-1 4-3 3-3 1-4-3-4-5-2-3q-2 1-4 1t-2-1-3-1-3-2q-1-2-4-2t-5-1q8 3-1 6-5 2-9 2 6 2 5 6t-5 8h3q-1 2-5 5t-10 5-7 3q-5 3-19 5t-18 1q-3-4-3-6t2-8 2-7q1-3-3-7t-3-7q0-4 7-9t6-12q-2-4-9-9t-9-6q-3-5-1-11t6-9q1-1 1-2t-2-3-3-2-4-2l-1-1q-7-3-12 3t-7 15q-4 14-9 17-13 4-16-1-3 7-23 15-14 5-33 2 4 0 0 8-4 9-10 7 1 3 2 10t0 7q2 8 7 13 1 1 4 5t5 7 1 4q19-3 28 6 2 3 6 9t6 10q5 3 8 3t8-3 8-3q8-1 8 6t-4 11q7 0 2 10-2 4-5 5-6 2-15-3-4-2 2-4-1 0-6-6t-9-10-9 3q0 0-3 7t-5 8q-5 0-9-9 1 5-6 9t-14 4q11 7-4 15-4 3-12 3t-11-2q-2-4-3-7t3-4 6-3 6-2 5-2q8-6 5-8-1 0-5-2t-6-2-4-2q-1-3 0-8t-1-8q-3 3-5 10t-4 9q4-5-14-3l-5 0q-3 0-9-1t-12-1-7 5q-3 4 0 11 0 2 2 1-2 2-6 5t-6 5q-25-8-52-23 3 0 6 1 3 1 8 4t5 3q19 7 24 4l3 2q7-9 11-14-4 3-17 1-11-3-12-7 4-6 2-10-2 2-6 6t-8 6-8 3q-9 0-13-1-81-45-131-124 4-4 7-4 2-1 3-5t1-6 6 1q5-4 2-10 1 0 25-15 10-10 11-12 2-6-5-10-1 1-5 5t-5 2q-2-3 0-10t6-7q-4 0-5-9t-2-20 0-13l1-1q-2-6 3-19t12-11q-7-1 11-24 3-4 4-5 2-1 7-4t9-6 5-5q2-3 6-13t8-13q-2-3 5-11t6-13q-1 0-2-1t-1 0q2-4 9-8t8-7q1-2 1-6t2-6 4-1q2 11-13 35-8 13-9 16-2 2-4 8t-2 8q1 0 3 0t5-2 4-3 1-1q-1-4 1-10t7-10 10-11 6-7q4-4 8-11t0-8q5 0 11-5t10-11q3-5 4-15t3-13q1-4 5-8t7-5l9-5t7-3q3-2 10-6t12-7q6-2 9-2t8 1 8 2q8 1 16-8t12-12q20-10 30-6-1 0 1-4t4-9 5-8 3-5q3-3 10-8t10-8q4 2 4 5-1-5 4-11t10-6q8 2 8 18-17-8-27 10 0 0-2 3t-2 5-1 4 0 5 2 1q5 0 6 2t-1 7-2 8q-1 4-6 11t-7 8q-3-5-9-4t-9 5q0-1-1-3t-1-4q-7 0-8 0 1 2 1 10t2 13q1 2 3 6t5 9 2 7-3 5-9 1q-11 0-15-11-1-2-2-6t-2-6-5-4q-4-2-14-1t-13 3q-8 4-13 16t-5 20q0 6 1 15t2 14-3 14q2 1 5 5t5 6q2 1 3 1t3 0 2 1 1 3q0 1-2 2-1 1-2 1 4-1 16 1t15-1q9-6 12 1 0 1-1 6t0 7q3-15 16-5 2-1 9-3t9-2q2-1 4-3t3-3 3 0 5 4q5-8 7-13 6-23 10-25 4-2 6-1t3 5 0 8-1 7l-1 5v10l0 4q-8 2-10 7t0 10 9 10q0 1 4 2t9 4 7 4q12 11 8 20 4 0 6 5 0 0-2 2t-5 2-2 2q5 2 1 8 3 2 4 7t4 5q5-6 12-1 5 5 1 9 2 4 11 6t10 5q4-1 5 1t0 7 2 7q2 2 9 5t7 2l9 7q2 2 0 2 10-1 18 6 5 6-4 11 2 4-1 5t-9 4q2 0 7 0t5 1q9 5-3 9-10 2-24-7z m-91-490q115 21 195 106-1 2-7 2t-7 2q-10 4-13 5 1 4-1 7t-5 5-7 5-6 4q-1 1-4 3t-4 3-4 2-5 2-5-1l-2-1q-2 0-3-1t-3-2-2-1 0-2q-12 10-20 13-3 0-6 3t-6 4-6 0-6-3q-3-3-4-9t-1-7q-4 3 0 10t1 10q-1 3-6 2t-6-2-7-5-5-3-4-3-5-5q-2-2-4-6t-2-6q-1 2-7 3t-5 3q1-5 2-19t3-22q4-17-7-26-15-14-16-23-2-12 7-14 0-4-5-12t-4-12q0-3 2-9z" horiz-adv-x="857.1" />

<glyph glyph-name="icon-arrow-yellow" unicode="&#xe803;" d="M0 850h143v-143h-143v143z m286-286h-143v143h143v-143z m143-143h-143v143h143v-143z m0-142v142h142v-142h-142z m-143-143v143h143v-143h-143z m-143-143h143v143h-143v-143z m0 0v-143h-143v143h143z" horiz-adv-x="571" />

<glyph glyph-name="market" unicode="&#xe804;" d="M250-25c-28 0-54 11-74 31-19 19-30 46-30 73v709c0 16-7 32-18 44-12 11-28 18-45 18-16 0-32-7-44-18-12-12-18-28-18-44l0-709c0-61 24-119 67-162 43-43 101-67 162-67h708c17 0 33 7 45 18 11 12 18 28 18 44 0 17-7 33-18 45-12 11-28 18-45 18h-708z m583 125c17 0 33 7 45 18 11 12 18 28 18 45v250c0 16-7 32-18 44-12 11-28 18-45 18-16 0-32-7-44-18-12-12-18-28-18-44v-250c0-17 6-33 18-45 12-11 28-18 44-18z m-500 0c17 0 33 7 45 18 11 12 18 28 18 45v250c0 16-7 32-18 44-12 11-28 18-45 18-16 0-32-7-44-18-12-12-18-28-18-44v-250c0-17 6-33 18-45 12-11 28-18 44-18z m250 0c17 0 33 7 45 18 11 12 18 28 18 45v458c0 16-7 32-18 44-12 12-28 18-45 18-16 0-32-6-44-18-12-12-18-28-18-44v-458c0-17 6-33 18-45 12-11 28-18 44-18z" horiz-adv-x="1042" />

<glyph glyph-name="wallet" unicode="&#xe805;" d="M863 850c28 0 55-13 74-37 20-23 31-55 31-88v-62h-316c-69 0-136-33-186-92-49-59-77-138-77-221 0-83 28-162 77-221 50-59 117-91 186-91h316v-63c0-33-11-65-31-88-19-24-46-37-74-37h-737c-28 0-55 13-74 37-20 23-31 55-31 88v750c0 33 11 65 31 88 19 24 46 37 74 37h737z m53-312c28 0 54-14 74-37 20-24 31-55 31-88v-125c0-34-11-65-31-89-20-23-46-36-74-36h-264c-41 0-82 19-111 54-30 36-46 83-46 133 0 50 16 97 46 133 29 35 70 55 111 55h264z m-264-125c-13 0-27-7-37-19-10-11-15-27-15-44 0-17 5-32 15-44 10-12 24-18 37-18 14 0 28 6 38 18 10 12 15 27 15 44 0 17-5 33-15 44-10 12-24 19-38 19z" horiz-adv-x="1042" />

<glyph glyph-name="guide" unicode="&#xe806;" d="M910 739v-778h-778v778h778z m0 111h-778c-61 0-111-50-111-111v-778c0-61 50-111 111-111h778c61 0 111 50 111 111v778c0 61-50 111-111 111z m-278-778h-389v111h389v-111z m167 222h-556v112h556v-112z m0 223h-556v111h556v-111z" horiz-adv-x="1042" />

<glyph glyph-name="trade" unicode="&#xe807;" d="M844 663h-131l81 80c12 12 19 28 19 45 0 16-7 32-19 44-11 11-27 18-44 18-17 0-32-7-44-18l-232-232 232-232c6-5 13-10 20-13 8-3 16-5 24-5 8 0 16 2 24 5 8 3 14 8 20 13 12 12 19 28 19 45 0 16-7 32-19 44l-81 81h131c86 0 156-85 156-188 0-103-84-187-187-187-17 0-33-7-45-19-11-11-18-27-18-44 0-17 7-32 18-44 12-12 28-18 45-18 172 0 312 140 312 312 0 172-126 313-281 313z m-513-331c-12-12-18-28-18-44 0-17 6-33 18-45l81-80h-131c-86 0-156 84-156 187 0 103 84 188 188 188 16 0 32 6 44 18 11 12 18 27 18 44 0 17-7 33-18 44-12 12-28 19-44 19-173 0-313-141-313-313 0-172 126-312 281-312h131l-81-81c-6-6-11-13-14-21-3-7-4-15-4-24 0-8 1-16 4-23 3-8 8-15 14-21 12-11 27-18 44-18 8 0 16 2 24 5 8 3 14 7 20 13l232 232-232 232c-11 11-27 18-44 18-17 0-32-7-44-18z" horiz-adv-x="1125" />

<glyph glyph-name="chart" unicode="&#xe808;" d="M325 746c-9 0-16-7-16-16v-39h-26c-29 0-52-24-52-53v-231c0-29 23-52 52-52h26v-34c0-9 7-16 16-16 9 0 17 7 17 16v34h33c29 0 53 23 53 52v231c0 29-24 53-53 53h-33v39c0 9-8 16-17 16z m516 104c-9 0-17-8-17-17v-38h-29c-29 0-52-24-52-53v-231c0-29 23-52 52-52h29v-33c0-9 8-17 17-17 9 0 17 8 17 17v33h37c29 0 52 23 52 52v231c0 29-23 53-52 53h-37v38c0 9-8 17-17 17z m-230-442c-10 0-17-8-17-17v-39h-29c-29 0-53-23-53-52v-231c0-29 24-53 53-53h29v-32c0-10 7-17 17-17 9 0 17 7 17 17v32h36c29 0 53 24 53 53v231c0 29-24 52-53 52h-36v39c0 9-8 17-17 17z m-497-104c-11 0-20-9-20-20v-36h-41c-29 0-53-23-53-52v-231c0-29 24-53 53-53h41v-30c0-11 9-19 20-19 11 0 20 8 20 19v30h50c29 0 53 24 53 53v231c0 29-24 52-53 52h-50v36c0 11-9 20-20 20z" horiz-adv-x="947" />

<glyph glyph-name="arrow-down" unicode="&#xe809;" d="M307-132c9-10 21-16 34-16 13 0 25 6 33 16l268 311c5 5 8 11 11 17 2 7 4 14 4 22 0 7-1 14-4 21-2 7-6 13-10 18-5 5-10 9-16 12-5 3-12 4-18 4-6 0-13-2-18-4-6-3-11-7-16-13l-187-217 0 728c0 14-5 28-14 39-8 10-20 16-33 16-13 0-25-6-34-16-8-11-13-25-13-39l0-728-187 217c-9 10-21 16-34 16-12 0-24-6-33-16-9-11-14-24-14-39 0-14 5-28 14-38l267-311z" horiz-adv-x="682" />

<glyph glyph-name="transfer" unicode="&#xe80a;" d="M833 267c16 0 32-6 43-18 12-11 19-26 20-42 1-16-5-32-15-44-11-12-26-19-42-21l-6 0h-515l60-60c11-12 18-27 18-43 0-16-5-32-16-44-11-11-26-19-42-20-16-1-32 4-44 14l-5 4-159 160c-41 41-15 109 41 113l6 1h656z m-210 440c10 11 25 17 41 18 15 1 30-4 42-14l5-4 159-160c41-40 15-109-41-113l-6-1h-656c-16 0-32 7-43 18-12 11-19 26-20 42 0 16 5 32 15 44 11 12 26 20 42 21l6 0h516l-60 60c-12 12-19 28-19 45 0 16 7 32 19 44z" horiz-adv-x="1000" />

<glyph glyph-name="fees" unicode="&#xe80e;" d="M439 692c-42 0-81-16-110-46-29-30-45-70-45-112 0-42 16-82 45-111 29-30 68-47 110-47 41 0 80 17 109 47 29 29 45 69 45 111 0 42-16 82-45 112-29 30-68 46-109 46z m-78-158c0 21 8 41 23 56 14 15 34 23 55 23 20 0 40-8 54-23 15-15 23-35 23-56 0-21-8-41-23-56-14-14-34-23-54-23-21 0-41 9-55 23-15 15-23 35-23 56z m-361 198c0 31 12 61 34 83 22 23 51 35 82 35h645c15 0 30-3 44-9 14-6 27-15 38-26 11-11 19-24 25-38 6-14 9-30 9-45v-250h-77v131h-39c-31 0-60 13-82 35-22 22-34 52-34 84v39h-413v-39c0-32-12-62-34-84-22-22-51-35-82-35h-39v-158h39c31 0 60-12 82-34 22-23 34-53 34-84v-40h387v-79h-503c-31 0-60 13-82 35-22 22-34 52-34 84v395z m116 39c-10 0-20-4-27-11-7-8-12-18-12-28v-40h39c10 0 20 4 27 12 8 7 12 17 12 28v39h-39z m684-79v40c0 10-4 20-12 28-7 7-17 11-27 11h-39v-39c0-22 18-40 39-40h39z m-723-355c0-22 18-40 39-40h39v40c0 10-4 20-12 28-7 7-17 11-27 11h-39v-39z m47-197h495v-79h-361c-27 0-54 7-77 21-24 14-44 34-57 58z m908 342v105c0 28-7 55-21 79-14 24-33 44-57 58v-242h78z m-284-53c-20 0-40-8-55-23-14-15-22-35-22-56v-421c0-21 8-41 22-56 15-15 35-23 55-23h258c21 0 40 8 55 23 14 15 22 35 22 56v421c0 21-8 41-22 56-15 15-34 23-55 23h-258z m26-237h51c7 0 14-3 19-8 5-4 7-11 7-18 0-7-2-14-7-19-5-5-12-7-19-7h-51c-7 0-14 2-18 7-5 5-8 12-8 19 0 7 3 14 8 18 4 5 11 8 18 8z m155 0h51c7 0 14-3 18-8 5-4 8-11 8-18 0-7-3-14-8-19-4-5-11-7-18-7h-51c-7 0-14 2-19 7-4 5-7 12-7 19 0 7 3 14 7 18 5 5 12 8 19 8z m-155-105h51c7 0 14-3 19-8 5-5 7-11 7-18 0-7-2-14-7-19-5-5-12-8-19-8h-51c-7 0-14 3-18 8-5 5-8 12-8 19 0 7 3 13 8 18 4 5 11 8 18 8z m155 0h51c7 0 14-3 18-8 5-5 8-11 8-18 0-7-3-14-8-19-4-5-11-8-18-8h-51c-7 0-14 3-19 8-4 5-7 12-7 19 0 7 3 13 7 18 5 5 12 8 19 8z m-155-105h51c7 0 14-3 19-8 5-5 7-12 7-19 0-7-2-13-7-18-5-5-12-8-19-8h-51c-7 0-14 3-18 8-5 5-8 11-8 18 0 7 3 14 8 19 4 5 11 8 18 8z m155 0h51c7 0 14-3 18-8 5-5 8-12 8-19 0-7-3-13-8-18-4-5-11-8-18-8h-51c-7 0-14 3-19 8-4 5-7 11-7 18 0 7 3 14 7 19 5 5 12 8 19 8z m-181 342c0 7 3 13 8 18 4 5 11 8 18 8h206c7 0 14-3 18-8 5-5 8-11 8-18v-53c0-7-3-14-8-19-4-4-11-7-18-7h-206c-7 0-14 3-18 7-5 5-8 12-8 19v53z" horiz-adv-x="1083" />

<glyph glyph-name="help-center" unicode="&#xe80f;" d="M500 72l-40 37c-143 130-238 215-238 320 0 86 67 153 153 153 48 0 94-23 125-58 31 35 77 58 125 58 86 0 153-67 153-153 0-105-95-190-238-320l-40-37z m-389 778h778c29 0 58-12 79-32 20-21 32-50 32-79v-778c0-29-12-58-32-79-21-20-50-32-79-32h-778c-29 0-58 12-78 32-21 21-33 50-33 79v778c0 29 12 58 33 79 20 20 49 32 78 32z m0-111v-778h778v778h-778z" horiz-adv-x="1000" />

<glyph glyph-name="invite-friend" unicode="&#xe810;" d="M833 475v125h-83v-125h-125v-83h125v-125h83v125h125v83h-125z m-458-125c92 0 167 75 167 167 0 92-75 166-167 166-92 0-167-74-167-166 0-92 75-167 167-167z m0 250c46 0 83-37 83-83 0-46-37-84-83-84-46 0-83 38-83 84 0 46 37 83 83 83z m266-357c-70 36-161 65-266 65-105 0-196-29-266-65-42-21-67-64-67-110v-116h666v116c0 46-25 89-67 110z m-16-143h-500v33c0 15 8 30 22 36 49 26 129 56 228 56 99 0 179-30 228-56 14-6 22-21 22-36v-33z" horiz-adv-x="1000" />

<glyph glyph-name="security" unicode="&#xe811;" d="M400 850l-400-150v-304c0-253 171-489 400-546 230 57 400 293 400 546v304l-400 150z m300-454c0-200-127-385-300-442-172 57-300 241-300 442v239l300 106 300-106v-239z m-459 25l-71-71 177-177 283 283-70 71-212-212-107 106z" horiz-adv-x="800" />

<glyph glyph-name="setting" unicode="&#xe812;" d="M363-150l-20 160c-10 4-21 9-30 15-10 6-19 12-28 19l-148-63-137 238 128 97c-1 6-1 12-1 17v34c0 5 0 11 1 17l-128 97 137 238 148-63c9 7 19 13 28 19 10 6 20 11 30 15l20 160h274l20-160c11-4 21-9 30-15 10-6 19-12 28-19l148 63 137-238-128-97c1-6 1-12 1-17v-34c0-5-1-11-2-17l128-97-137-238-147 63c-9-7-18-13-28-19-10-6-20-11-30-15l-20-160h-274z m87 100h99l17 133c26 6 50 16 71 29 22 13 43 28 61 47l123-51 48 85-107 81c5 11 8 24 9 37 2 13 3 26 3 39 0 13-1 27-3 39-1 13-4 26-9 37l107 82-48 85-123-53c-18 19-39 35-61 48-21 13-45 23-71 30l-16 132h-98l-18-132c-26-7-49-17-71-30-22-13-42-28-61-47l-123 52-48-85 107-80c-5-13-7-25-9-38-2-12-3-26-3-40 0-13 1-26 3-39 2-12 4-25 9-37l-107-81 48-85 123 52c19-19 39-35 61-48 22-13 45-23 71-29l16-133z m53 225c48 0 89 17 123 51 34 34 51 76 51 124 0 48-17 90-51 124-34 34-75 51-123 51-49 0-91-17-124-51-34-34-51-76-51-124 0-48 17-90 51-124 33-34 75-51 124-51z" horiz-adv-x="1000" />

<glyph glyph-name="transaction" unicode="&#xe813;" d="M889 739v-500h-278v-278h-500v778h778z m0 111h-778c-61 0-111-50-111-111v-778c0-61 50-111 111-111h556l333 333v556c0 61-50 111-111 111z m-389-611h-278v111h278v-111z m278 222h-556v111h556v-111z" horiz-adv-x="1000" />

<glyph glyph-name="instagram" unicode="&#xf16d;" d="M571 350q0 59-41 101t-101 42-101-42-42-101 42-101 101-42 101 42 41 101z m77 0q0-91-64-156t-155-64-156 64-64 156 64 156 156 64 155-64 64-156z m61 229q0-21-15-36t-37-15-36 15-15 36 15 36 36 15 37-15 15-36z m-280 123q-4 0-43 0t-59 0-54-2-57-5-40-11q-28-11-49-32t-33-49q-6-16-10-40t-6-58-1-53 0-59 0-43 0-43 0-59 1-53 6-58 10-40q12-28 33-49t49-32q16-6 40-11t57-5 54-2 59 0 43 0 42 0 59 0 54 2 58 5 39 11q28 11 50 32t32 49q6 16 10 40t6 58 1 53 0 59 0 43 0 43 0 59-1 53-6 58-10 40q-11 28-32 49t-50 32q-16 6-39 11t-58 5-54 2-59 0-42 0z m428-352q0-128-3-177-5-116-69-180t-179-69q-50-3-177-3t-177 3q-116 6-180 69t-69 180q-3 49-3 177t3 177q5 116 69 180t180 69q49 3 177 3t177-3q116-6 179-69t69-180q3-49 3-177z" horiz-adv-x="857.1" />

<glyph glyph-name="moon" unicode="&#xf186;" d="M704 123q-30-5-61-5-102 0-188 50t-137 137-50 188q0 107 58 199-112-33-183-128t-72-214q0-72 29-139t76-113 114-77 139-28q80 0 152 34t123 96z m114 47q-53-113-159-181t-230-68q-87 0-167 34t-136 92-92 137-34 166q0 85 32 163t87 135 132 92 161 38q25 1 34-22 11-23-8-40-48-43-73-101t-26-122q0-83 41-152t111-111 152-41q66 0 127 29 23 10 40-7 8-8 10-19t-2-22z" horiz-adv-x="857.1" />

<glyph glyph-name="telegram" unicode="&#xf2c6;" d="M664 121l82 386q5 25-6 36t-29 3l-482-185q-16-6-22-14t-2-15 18-11l124-38 286 180q12 8 18 3 4-3-3-8l-231-210-9-127q13 0 25 13l60 58 125-93q36-20 46 22z m336 229q0-102-40-194t-106-160-160-106-194-40-194 40-160 106-106 160-40 194 40 194 106 160 160 106 194 40 194-40 160-106 106-160 40-194z" horiz-adv-x="1000" />

<glyph glyph-name="twitter-circled" unicode="&#xf30a;" d="M480 830q200 0 340-140t140-340q0-198-140-339t-340-141q-198 0-339 141t-141 339q0 200 141 340t339 140z m196-392q30 22 46 48-32-12-54-14 30 18 42 52-30-16-60-22-28 28-70 28-40 0-67-28t-27-66q0-2 1-10t1-12q-120 6-194 100-14-24-14-48 0-50 44-78-26 0-44 12l0-2q0-34 21-60t55-32q-16-4-24-4-12 0-18 2 20-66 88-66-50-40-118-40l-22 0q68-42 144-42 122 0 196 83t74 187l0 12z" horiz-adv-x="960" />

<glyph glyph-name="linkedin-squared" unicode="&#xf30c;" d="M132 61h129v387h-129v-387z m138 507q-1 29-21 48t-51 19-53-19-21-48q0-29 20-48t52-19h0q33 0 53 19t21 48z m326-507h129v222q0 86-41 130t-107 44q-76 0-117-65h1v56h-129q2-37 0-387h129v217q0 21 4 31 8 19 25 33t41 14q65 0 65-88v-207z m261 557v-536q0-66-47-113t-114-48h-535q-67 0-114 48t-47 113v536q0 66 47 113t114 48h535q67 0 114-48t47-113z" horiz-adv-x="857.1" />

<glyph glyph-name="facebook-squared" unicode="&#xf30e;" d="M752 770q44 0 76-31t32-75l0-646q0-44-32-76t-76-32l-162 0 0 310 114 0 0 134-114 0 0 70q0 30 28 30l86 0 0 152-96 0q-74 0-124-54t-50-132l0-66-104 0 0-134 104 0 0-310-326 0q-44 0-76 32t-32 76l0 646q0 44 32 75t76 31l644 0z" horiz-adv-x="860" />

<glyph glyph-name="skype-circled" unicode="&#xf33a;" d="M588 358q20-12 28-30 10-20 10-44 0-32-18-56-12-22-48-40-38-14-78-14-54 0-88 20-22 12-40 36-16 26-16 46 0 14 10 24 14 10 26 10 14 0 22-8 8-4 14-22 2-6 7-15t7-11q6-8 20-16 16-6 36-6 32 0 50 12 18 14 18 32 0 16-10 24-10 10-26 16-6 2-21 5t-23 5q-20 4-66 20-20 10-42 32-16 22-16 52 0 28 18 50 16 22 48 34 30 12 72 12 34 0 56-8 20-4 42-20 18-18 24-28 6-16 6-30t-10-24-24-10q-12 0-22 6-8 8-14 20-10 18-22 28-10 10-42 10-26 0-42-10-16-12-16-24 0-10 6-16 8-8 14-10 4-2 20-8 18-6 34-10 36-8 54-14 28-10 42-20z m-108 472q200 0 340-140t140-340q0-198-140-339t-340-141q-198 0-339 141t-141 339q0 200 141 340t339 140z m116-748q58 0 100 43t42 103q0 34-16 66 6 28 6 54 0 104-72 178t-174 74q-28 0-42-2-34 22-74 22-60 0-102-43t-42-103q0-40 20-76-4-16-4-50 0-104 72-178t172-74q32 0 46 4 30-18 68-18z" horiz-adv-x="960" />
</font>
</defs>
</svg>
