<svg width="24" height="24" viewBox="0 0 24 24" fill="none" xmlns="http://www.w3.org/2000/svg">
    <g clip-path="url(#clip0_212_632)">
        <path
            d="M1.99609 23.9597V21.5914H3.16767C3.35161 21.5914 3.51898 21.6274 3.66978 21.6994C3.82058 21.7714 3.94072 21.8715 4.03186 21.9989C4.123 22.1264 4.16774 22.2733 4.16774 22.4403C4.16774 22.6074 4.12217 22.7557 4.03186 22.8853C3.94072 23.015 3.82058 23.115 3.66978 23.1863C3.51898 23.2576 3.35161 23.2929 3.16767 23.2929H2.64983V23.9597H1.99609V23.9597ZM2.64983 22.8227H3.09393C3.17182 22.8227 3.24224 22.8083 3.30604 22.7788C3.36984 22.7492 3.42038 22.706 3.45767 22.6484C3.49495 22.5908 3.51401 22.5224 3.51401 22.4439C3.51401 22.3654 3.49495 22.297 3.45767 22.2409C3.42038 22.1847 3.36901 22.1415 3.30604 22.112C3.24224 22.0825 3.17182 22.0681 3.09393 22.0681H2.64983V22.8227V22.8227Z"
            fill="#49454F" />
        <path
            d="M5.45733 23.9597C5.23196 23.9597 5.03311 23.923 4.8616 23.8495C4.69009 23.7761 4.55669 23.6745 4.46058 23.5435C4.36446 23.4124 4.31641 23.2626 4.31641 23.0934C4.31641 22.904 4.36281 22.7413 4.45478 22.6045C4.54675 22.4684 4.66854 22.364 4.821 22.2913C4.97262 22.2193 5.14248 22.1833 5.3289 22.1833C5.53936 22.1833 5.71418 22.2214 5.85421 22.2985C5.99424 22.3755 6.10112 22.4799 6.1732 22.6131C6.24612 22.7464 6.28257 22.8961 6.28257 23.0632C6.28257 23.0949 6.28092 23.1294 6.27677 23.1683C6.27263 23.2065 6.26683 23.2374 6.25937 23.2598H4.95108C4.9718 23.321 5.00328 23.3707 5.04471 23.4103C5.08614 23.4499 5.14165 23.4794 5.21042 23.4981C5.27919 23.5176 5.35625 23.5269 5.44242 23.5269H6.04561V23.9597H5.45816H5.45733ZM4.93948 22.9314H5.69844C5.69347 22.8954 5.68518 22.8601 5.67275 22.8263C5.66116 22.7924 5.64541 22.7629 5.62636 22.7363C5.60647 22.7104 5.58244 22.6873 5.55261 22.6671C5.52279 22.647 5.48799 22.6319 5.44904 22.6218C5.4101 22.6117 5.36867 22.6067 5.32476 22.6067C5.2651 22.6067 5.21208 22.616 5.16485 22.6355C5.11845 22.6549 5.07951 22.6787 5.04802 22.7082C5.01654 22.7377 4.99251 22.7723 4.97594 22.8112C4.95937 22.8508 4.94694 22.8904 4.93865 22.9314H4.93948Z"
            fill="#49454F" />
        <path
            d="M6.44922 22.6535V22.2236H7.93234V22.6535H6.44922ZM7.36395 23.959C7.18001 23.959 7.03584 23.9136 6.93227 23.8221C6.8287 23.7307 6.7765 23.6076 6.7765 23.452V21.8009H7.38383V23.4211C7.38383 23.4484 7.3946 23.4715 7.41697 23.4902C7.43935 23.5096 7.46586 23.519 7.49652 23.519H7.93234V23.959H7.36395V23.959Z"
            fill="#49454F" />
        <path
            d="M9.3457 23.9597V21.5914H10.591C10.775 21.5914 10.9423 21.6267 11.0931 21.6965C11.2439 21.7663 11.3641 21.8636 11.4552 21.9874C11.5464 22.1113 11.5911 22.256 11.5911 22.4202C11.5911 22.5692 11.5505 22.7046 11.4685 22.8263C11.3864 22.948 11.2771 23.0452 11.1395 23.1172L11.3574 23.4384C11.3707 23.4542 11.3856 23.4664 11.4022 23.4758C11.4188 23.4852 11.442 23.4895 11.4701 23.4895H11.7079V23.9597H11.3301C11.2133 23.9597 11.1072 23.9352 11.0111 23.887C10.915 23.8387 10.8396 23.7746 10.7857 23.6961L10.4941 23.2461H9.99944V23.9597H9.3457V23.9597ZM9.99944 22.7759H10.5173C10.5952 22.7759 10.6656 22.7622 10.7294 22.7356C10.7932 22.7082 10.8437 22.6672 10.881 22.6124C10.9183 22.557 10.9374 22.4936 10.9374 22.4216C10.9374 22.3496 10.9175 22.2834 10.8794 22.2308C10.8404 22.1775 10.7891 22.1379 10.7253 22.1105C10.6615 22.0832 10.5919 22.0702 10.5173 22.0702H9.99944V22.7773V22.7759Z"
            fill="#49454F" />
        <path
            d="M12.9612 23.9597C12.7359 23.9597 12.537 23.923 12.3655 23.8495C12.194 23.7761 12.0606 23.6745 11.9645 23.5435C11.8684 23.4124 11.8203 23.2626 11.8203 23.0934C11.8203 22.904 11.8667 22.7413 11.9587 22.6045C12.0507 22.4684 12.1724 22.364 12.3249 22.2913C12.4765 22.2193 12.6464 22.1833 12.8328 22.1833C13.0433 22.1833 13.2181 22.2214 13.3581 22.2985C13.4981 22.3755 13.6042 22.4799 13.6771 22.6131C13.75 22.7464 13.7865 22.8961 13.7865 23.0632C13.7865 23.0949 13.7848 23.1294 13.7807 23.1683C13.7765 23.2065 13.7707 23.2374 13.7633 23.2598H12.455C12.4757 23.321 12.5072 23.3707 12.5486 23.4103C12.59 23.4499 12.6456 23.4794 12.7143 23.4981C12.7831 23.5176 12.8602 23.5269 12.9455 23.5269H13.5487V23.9597H12.9612V23.9597ZM12.4434 22.9314H13.2023C13.1974 22.8954 13.1891 22.8601 13.1767 22.8263C13.1651 22.7924 13.1493 22.7629 13.1303 22.7363C13.1104 22.7104 13.0863 22.6873 13.0565 22.6671C13.0267 22.647 12.9919 22.6319 12.9538 22.6218C12.9148 22.6117 12.8734 22.6067 12.8295 22.6067C12.7698 22.6067 12.7168 22.616 12.6696 22.6355C12.6232 22.6549 12.5842 22.6787 12.5528 22.7082C12.5213 22.7377 12.4972 22.7723 12.4807 22.8112C12.4641 22.8508 12.4517 22.8904 12.4434 22.9314V22.9314Z"
            fill="#49454F" />
        <path
            d="M14.1409 23.9597V23.5399H15.102C15.1277 23.5399 15.1509 23.5348 15.1724 23.5248C15.1931 23.5147 15.2097 23.501 15.2213 23.4844C15.2329 23.4671 15.2387 23.4491 15.2387 23.429C15.2387 23.4045 15.2337 23.3836 15.223 23.3663C15.2122 23.3498 15.1973 23.3361 15.1766 23.326C15.1558 23.3159 15.1302 23.3109 15.0987 23.3109H14.7482C14.6206 23.3109 14.5046 23.2922 14.3994 23.2547C14.2941 23.2173 14.2105 23.159 14.1483 23.079C14.0862 22.9991 14.0547 22.8961 14.0547 22.7694C14.0547 22.6679 14.0829 22.5764 14.14 22.495C14.1972 22.4137 14.2743 22.3482 14.3712 22.2985C14.4681 22.2488 14.5758 22.2243 14.6927 22.2243H15.6538V22.6441H14.7855C14.7515 22.6441 14.7208 22.6542 14.6943 22.6743C14.6678 22.6945 14.6537 22.7204 14.6537 22.7521C14.6537 22.7816 14.667 22.8068 14.6927 22.8284C14.7184 22.85 14.7498 22.8608 14.7863 22.8608H15.1285C15.2735 22.8608 15.3994 22.8796 15.5063 22.917C15.6124 22.9545 15.6944 23.0135 15.7516 23.0949C15.8087 23.1762 15.8369 23.2806 15.8369 23.4095C15.8369 23.5111 15.8079 23.6032 15.7491 23.6868C15.6903 23.7703 15.6132 23.8365 15.5154 23.8862C15.4185 23.9359 15.3083 23.9604 15.1865 23.9604H14.1392L14.1409 23.9597Z"
            fill="#49454F" />
        <path
            d="M17.1815 23.9597C16.9735 23.9597 16.7887 23.9223 16.6272 23.8466C16.4648 23.771 16.3372 23.6688 16.2435 23.5385C16.1499 23.4088 16.1035 23.2605 16.1035 23.0934C16.1035 22.9264 16.1499 22.7781 16.2435 22.6484C16.3372 22.5188 16.4648 22.4159 16.6272 22.3388C16.7896 22.2625 16.9743 22.2236 17.1815 22.2236H17.4814V22.6664H17.2047C17.1036 22.6664 17.0166 22.6852 16.9437 22.7226C16.8708 22.7601 16.8144 22.8105 16.7746 22.8745C16.7349 22.9386 16.7142 23.0114 16.7142 23.0927C16.7142 23.1741 16.734 23.2475 16.7746 23.3124C16.8152 23.3779 16.8716 23.4283 16.9437 23.4643C17.0166 23.5003 17.1036 23.5183 17.2047 23.5183H17.4814V23.9583H17.1815V23.9597Z"
            fill="#49454F" />
        <path
            d="M18.8112 24C18.6066 24 18.4292 23.9647 18.2801 23.8949C18.131 23.825 18.0158 23.7322 17.9354 23.6155C17.8551 23.4988 17.8145 23.3678 17.8145 23.2216V22.2236H18.4176V23.2079C18.4176 23.2691 18.4342 23.3246 18.4682 23.3757C18.5022 23.4261 18.5486 23.4672 18.6082 23.4974C18.6679 23.5277 18.7342 23.5428 18.8071 23.5428C18.88 23.5428 18.9454 23.5277 19.0034 23.4974C19.0614 23.4672 19.1078 23.4261 19.1418 23.3757C19.1758 23.3253 19.1923 23.2691 19.1923 23.2079V22.2236H19.7997V23.2216C19.7997 23.3685 19.7599 23.4996 19.6812 23.6155C19.6017 23.7314 19.4881 23.8243 19.3407 23.8949C19.1932 23.9655 19.0159 24 18.8112 24V24Z"
            fill="#49454F" />
        <path
            d="M21.2913 23.9597C21.0659 23.9597 20.8671 23.923 20.6956 23.8495C20.5241 23.7761 20.3907 23.6745 20.2946 23.5435C20.1984 23.4124 20.1504 23.2626 20.1504 23.0934C20.1504 22.904 20.1968 22.7413 20.2888 22.6045C20.3807 22.4684 20.5025 22.364 20.655 22.2913C20.8066 22.2193 20.9765 22.1833 21.1629 22.1833C21.3733 22.1833 21.5482 22.2214 21.6882 22.2985C21.8282 22.3755 21.9343 22.4799 22.0072 22.6131C22.0801 22.7464 22.1166 22.8961 22.1166 23.0632C22.1166 23.0949 22.1149 23.1294 22.1108 23.1683C22.1066 23.2065 22.1008 23.2374 22.0934 23.2598H20.7851C20.8058 23.321 20.8373 23.3707 20.8787 23.4103C20.9201 23.4499 20.9756 23.4794 21.0444 23.4981C21.1132 23.5176 21.1902 23.5269 21.2756 23.5269H21.8788V23.9597H21.2913V23.9597ZM20.7735 22.9314H21.5324C21.5275 22.8954 21.5192 22.8601 21.5067 22.8263C21.4951 22.7924 21.4794 22.7629 21.4603 22.7363C21.4405 22.7104 21.4164 22.6873 21.3866 22.6671C21.3568 22.647 21.322 22.6319 21.2839 22.6218C21.2449 22.6117 21.2035 22.6067 21.1596 22.6067C21.0999 22.6067 21.0469 22.616 20.9997 22.6355C20.9533 22.6549 20.9143 22.6787 20.8828 22.7082C20.8514 22.7377 20.8273 22.7723 20.8108 22.8112C20.7942 22.8508 20.7818 22.8904 20.7735 22.9314V22.9314Z"
            fill="#49454F" />
        <path
            d="M9.29597 6.36326C10.8518 6.00095 11.6787 4.29814 11.1427 2.55994C10.6068 0.821732 8.9111 -0.293654 7.35523 0.0686538C5.79936 0.430962 4.97254 2.13377 5.50846 3.87197C6.04438 5.61018 7.74011 6.72556 9.29597 6.36326Z"
            fill="#FF8264" />
        <path
            d="M18.4924 3.87219C19.0283 2.13398 18.2014 0.431181 16.6456 0.068873C15.0897 -0.293435 13.394 0.821951 12.8581 2.56016C12.3221 4.29836 13.149 6.00117 14.7048 6.36348C16.2607 6.72578 17.9564 5.6104 18.4924 3.87219Z"
            fill="#FF8264" />
        <path
            d="M4.66674 11.7694C6.12658 11.1777 6.60061 9.37604 5.72552 7.74511C4.85043 6.11419 2.9576 5.27165 1.49776 5.86326C0.0379233 6.45486 -0.436107 8.25657 0.438983 9.88749C1.31407 11.5184 3.2069 12.361 4.66674 11.7694Z"
            fill="#FF8264" />
        <path
            d="M23.5615 9.88764C24.4365 8.25672 23.9625 6.455 22.5027 5.8634C21.0428 5.2718 19.15 6.11433 18.2749 7.74526C17.3998 9.37618 17.8739 11.1779 19.3337 11.7695C20.7935 12.3611 22.6864 11.5186 23.5615 9.88764Z"
            fill="#FF8264" />
        <path
            d="M13.8747 17.6972C14.2198 17.6972 14.4995 17.4541 14.4995 17.1543C14.4995 16.8544 14.2198 16.6113 13.8747 16.6113C13.5297 16.6113 13.25 16.8544 13.25 17.1543C13.25 17.4541 13.5297 17.6972 13.8747 17.6972Z"
            fill="#FF8264" />
        <path
            d="M20.5404 16.7921C19.9712 14.9206 17.2419 14.7579 16.3744 12.6286C16.0173 11.7523 16.1209 10.8724 15.3329 9.7325C15.0065 9.25942 14.7198 8.99803 14.4994 8.82737C13.5872 8.11882 12.8332 7.92224 11.9996 7.92224C11.1661 7.92224 10.413 8.11882 9.49989 8.82737C9.28032 8.99803 8.99364 9.25942 8.66636 9.7325C7.8784 10.8724 7.98197 11.7523 7.62486 12.6286C6.75736 14.7586 4.02892 14.9213 3.45887 16.7921C3.39093 17.0146 3.21776 17.5856 3.45887 18.2402C3.61796 18.6715 3.89552 18.9725 4.08361 19.1453C4.08361 19.1453 5.23281 20.1483 7.41606 19.8697C7.6522 19.8394 7.87426 19.7804 7.87426 19.7804C8.09631 19.717 8.26699 19.6342 8.51887 19.5305C8.8619 19.3901 9.08312 19.0927 9.08312 18.7629V16.4306C9.08312 15.2562 10.0036 14.2711 11.2515 13.9838C11.2763 13.978 11.3012 13.9723 11.326 13.9672C11.384 13.955 11.442 13.9449 11.5017 13.9363C11.5448 13.9298 11.5879 13.924 11.6318 13.919C11.6807 13.914 11.7295 13.9096 11.7792 13.906C11.8058 13.9046 11.8314 13.9003 11.858 13.8996H11.9334C11.9557 13.8996 11.9773 13.8967 11.9988 13.8967C12.0204 13.8967 12.0427 13.8988 12.0643 13.8996H12.1397C12.1662 13.901 12.1919 13.9046 12.2184 13.906C12.2681 13.9089 12.317 13.9132 12.3659 13.919C12.4098 13.924 12.4529 13.9298 12.496 13.9363C12.5548 13.9449 12.6136 13.9557 12.6716 13.9672C12.6965 13.9723 12.7213 13.978 12.7462 13.9838C13.994 14.2711 14.9145 15.2562 14.9145 16.4306V18.7629C14.9145 19.092 15.1357 19.3901 15.4788 19.5305C15.7306 19.6335 15.9013 19.717 16.1234 19.7804C16.1234 19.7804 16.3454 19.8402 16.5816 19.8697C18.7648 20.1491 19.9132 19.146 19.914 19.1453C20.1021 18.9725 20.3797 18.6715 20.5388 18.2402C20.7799 17.5856 20.6067 17.0146 20.5388 16.7921H20.5404Z"
            fill="#FF6464" />
    </g>
    <defs>
        <clipPath id="clip0_212_632">
            <rect width="24" height="24" fill="white" />
        </clipPath>
    </defs>
</svg>